<?xml version="1.0" standalone="no"?>
<!DOCTYPE svg PUBLIC "-//W3C//DTD SVG 20010904//EN"
 "http://www.w3.org/TR/2001/REC-SVG-20010904/DTD/svg10.dtd">
<svg version="1.0" xmlns="http://www.w3.org/2000/svg"
 width="388.000000pt" height="388.000000pt" viewBox="0 0 388.000000 388.000000"
 preserveAspectRatio="xMidYMid meet">
<metadata>
Created by potrace 1.13, written by Peter Selinger 2001-2015
</metadata>
<g transform="translate(0.000000,388.000000) scale(0.100000,-0.100000)"
fill="#FFFFFF" stroke="none">
<path d="M1670 3845 c-406 -59 -769 -234 -1062 -514 -320 -304 -520 -692 -584
-1131 -25 -173 -15 -481 20 -648 61 -286 175 -542 344 -767 263 -353 655 -613
1081 -719 179 -45 237 -51 471 -51 235 0 292 6 475 52 346 86 692 289 934 549
251 269 409 575 488 944 25 116 27 143 28 370 0 264 -10 347 -70 551 -207 715
-840 1260 -1584 1363 -133 19 -417 19 -541 1z m514 -60 c304 -40 590 -153 851
-337 118 -82 342 -307 427 -428 137 -194 235 -403 289 -616 218 -863 -182
-1739 -976 -2137 -591 -296 -1306 -255 -1860 107 -383 251 -672 651 -784 1086
-49 192 -56 250 -56 475 0 225 7 284 56 473 184 721 810 1275 1553 1376 137
19 361 19 500 1z"/>
<path d="M1750 3295 l0 -425 -57 47 c-32 25 -82 57 -111 71 l-53 24 -427 2
c-427 1 -427 1 -485 -23 -115 -46 -206 -146 -243 -266 -13 -42 -16 -152 -21
-655 -2 -333 -1 -677 4 -766 9 -149 12 -166 41 -227 36 -78 104 -150 179 -190
81 -43 174 -50 593 -42 l365 6 61 29 c34 17 81 49 106 72 l46 43 6 -87 c11
-150 46 -237 125 -315 119 -117 182 -128 701 -118 l345 6 71 34 c90 44 172
129 205 212 21 54 24 76 27 295 l4 238 -27 57 c-27 60 -88 130 -141 164 -38
23 -116 40 -639 134 -225 40 -423 79 -440 85 -40 15 -92 65 -118 115 -21 38
-22 53 -22 270 l0 230 33 67 c37 76 82 120 162 157 l55 26 405 0 405 0 50 -27
c62 -32 129 -98 157 -152 12 -23 25 -79 31 -133 l11 -93 40 0 39 0 -5 88 c-8
118 -35 187 -105 262 -39 42 -76 70 -127 95 l-71 34 -355 6 c-202 4 -393 2
-442 -3 -104 -11 -173 -42 -244 -107 -26 -25 -49 -45 -51 -45 -2 0 -3 277 -3
615 l0 615 -40 0 -40 0 0 -425z m-199 -386 c70 -35 138 -99 171 -161 l23 -43
0 -775 0 -775 -24 -44 c-35 -67 -112 -136 -177 -161 -55 -20 -70 -21 -468 -18
-377 3 -414 5 -448 22 -61 30 -122 91 -156 154 l-32 60 0 761 0 762 26 51 c32
63 104 141 151 163 60 29 116 33 501 34 l373 1 60 -31z m334 -1244 c61 -46 93
-54 457 -120 700 -126 694 -124 740 -186 59 -79 62 -92 66 -282 4 -189 -6
-285 -38 -346 -23 -47 -83 -106 -140 -139 l-45 -27 -411 -3 c-397 -3 -412 -2
-467 18 -70 26 -140 92 -173 163 -15 35 -27 87 -34 148 -10 94 -14 809 -5 809
3 0 25 -16 50 -35z"/>
</g>
</svg>
